<?xml version="1.0" encoding="UTF-8"?>
<svg id="Layer_1" xmlns="http://www.w3.org/2000/svg" version="1.1" viewBox="0 0 2038 350">
  <!-- Generator: Adobe Illustrator 29.2.1, SVG Export Plug-In . SVG Version: 2.1.0 Build 116)  -->
  <defs>
    <style>
      .st0 {
        fill: #35454f;
      }

      .st1 {
        fill: #02c7b7;
      }
    </style>
  </defs>
  <path class="st0" d="M2009.1,271.6c-8.1,0-15-2.7-20.5-8.1-5.6-5.4-8.4-12.2-8.4-20.5s2.8-15.5,8.4-20.5c5.6-5.2,12.4-7.9,20.5-7.9s15,2.6,20.5,7.9c5.6,5.1,8.4,11.9,8.4,20.5s-2.8,15.1-8.4,20.5c-5.6,5.4-12.4,8.1-20.5,8.1Z"/>
  <path class="st0" d="M1901.4,271.6c-15.2,0-28.8-3-40.8-9.1-11.8-6.1-21.1-14.4-27.9-25.1-6.8-10.8-10.1-23.1-10.1-37s3.4-26.1,10.1-36.7c6.8-10.6,16.1-18.9,27.9-24.8,12-6.1,25.6-9.1,40.8-9.1s29,3.3,40.3,9.9c11.3,6.6,19.3,15.9,24.1,27.9l-37.3,19c-3.2-6.4-7.2-11.1-11.9-13.9-4.7-3-9.9-4.6-15.5-4.6s-10.7,1.3-15.2,3.8c-4.6,2.5-8.2,6.3-10.9,11.2-2.5,4.7-3.8,10.6-3.8,17.5s1.3,13.1,3.8,18c2.7,4.9,6.3,8.6,10.9,11.2,4.6,2.5,9.6,3.8,15.2,3.8s10.7-1.4,15.5-4.3c4.7-3,8.7-7.8,11.9-14.2l37.3,19c-4.7,12-12.8,21.3-24.1,27.9-11.3,6.6-24.8,9.9-40.3,9.9Z"/>
  <path class="st0" d="M1653,269.3v-137.4h45.9v39l-8.9-11.4c5.2-10,12.4-17.4,21.5-22.3,9.1-5.1,19.4-7.6,30.9-7.6s20.3,2.2,28.9,6.6c8.6,4.2,15.4,10.8,20.3,19.8,5.1,9,7.6,20.5,7.6,34.7v78.6h-48.1v-70.7c0-9.8-2-16.9-6.1-21.3-3.9-4.6-9.4-6.8-16.5-6.8s-9.7,1.2-13.9,3.5c-4.2,2.2-7.5,5.7-9.9,10.4-2.4,4.7-3.6,10.9-3.6,18.5v66.4h-48.2Z"/>
  <path class="st0" d="M1569.4,269.3V91.9h50.2v177.4h-50.2Z"/>
  <path class="st0" d="M1393.5,271.6c-15,0-28.4-3-40-9.1-11.7-6.1-20.9-14.4-27.6-25.1-6.6-10.8-9.9-23.1-9.9-37s3.3-26.1,9.9-36.7c6.8-10.6,16-18.9,27.6-24.8,11.6-6.1,25-9.1,40-9.1s28.4,3,40.1,9.1c11.8,5.9,21,14.2,27.6,24.8,6.6,10.6,9.9,22.9,9.9,36.7s-3.3,26.2-9.9,37c-6.6,10.6-15.8,19-27.6,25.1-11.7,6.1-25,9.1-40.1,9.1ZM1393.5,233.3c5.6,0,10.5-1.3,14.7-3.8,4.4-2.5,7.9-6.3,10.4-11.2,2.5-5.1,3.8-11.1,3.8-18s-1.3-12.8-3.8-17.5c-2.5-4.9-6-8.6-10.4-11.2-4.2-2.5-9.1-3.8-14.7-3.8s-10.3,1.3-14.7,3.8c-4.2,2.5-7.7,6.3-10.4,11.2-2.5,4.7-3.8,10.6-3.8,17.5s1.3,12.9,3.8,18c2.7,4.9,6.2,8.6,10.4,11.2,4.4,2.5,9.3,3.8,14.7,3.8Z"/>
  <path class="st0" d="M1220.5,272.9c-14,0-27-2.2-39-6.6-12-4.6-22.4-11-31.2-19.3-8.6-8.3-15.4-18-20.3-29.1-4.9-11.3-7.3-23.7-7.3-37.3s2.4-25.9,7.3-37c4.9-11.3,11.8-21.1,20.5-29.4,8.8-8.3,19.2-14.6,31.2-19,12.2-4.6,25.4-6.8,39.8-6.8s31.7,2.8,44.9,8.4c13.2,5.6,24.1,13.6,32.7,24.1l-31.9,28.9c-6.1-6.6-12.7-11.5-19.8-14.7-6.9-3.4-14.7-5.1-23.3-5.1s-14.5,1.2-20.8,3.5c-6.2,2.4-11.6,5.8-16,10.4-4.4,4.4-7.9,9.7-10.4,16-2.4,6.1-3.6,13-3.6,20.8s1.2,14.3,3.6,20.5c2.5,6.3,6,11.7,10.4,16.2,4.4,4.4,9.6,7.9,15.7,10.4,6.2,2.4,13.1,3.5,20.5,3.5s14.7-1.2,21.8-3.5c7.1-2.5,14.3-6.8,21.5-12.7l28.1,35.2c-10.1,7.3-21.9,12.8-35.2,16.7-13.3,3.9-26.5,5.8-39.3,5.8ZM1295,250.3l-44.4-6.6v-66.9h44.4v73.5Z"/>
  <path class="st1" d="M1063.5,230.6c-5.8,0-11.1-1.4-16-4.1-4.7-2.9-8.5-6.7-11.4-11.4-2.9-4.9-4.3-10.5-4.3-16.7s1.4-11.7,4.3-16.5c2.9-4.7,6.7-8.4,11.4-11.2,4.9-2.9,10.2-4.3,16-4.3s11,1.4,15.7,4.3c4.9,2.7,8.8,6.4,11.7,11.2,2.9,4.7,4.3,10.2,4.3,16.5s-1.4,11.8-4.3,16.7c-2.9,4.7-6.8,8.5-11.7,11.4-4.7,2.7-10,4.1-15.7,4.1Z"/>
  <path class="st0" d="M949.1,269.3V81.3h48.2v188.1h-48.2Z"/>
  <path class="st0" d="M849.2,271.6c-15,0-28.4-3-40-9.1-11.7-6.1-20.9-14.4-27.6-25.1-6.6-10.8-9.9-23.1-9.9-37s3.3-26.1,9.9-36.7c6.8-10.6,16-18.9,27.6-24.8,11.7-6.1,25-9.1,40-9.1s28.4,3,40,9.1c11.8,5.9,21,14.2,27.6,24.8,6.6,10.6,9.9,22.9,9.9,36.7s-3.3,26.2-9.9,37c-6.6,10.6-15.8,19-27.6,25.1-11.7,6.1-25,9.1-40,9.1ZM849.2,233.3c5.6,0,10.5-1.3,14.7-3.8,4.4-2.5,7.9-6.3,10.4-11.2,2.5-5.1,3.8-11.1,3.8-18s-1.3-12.8-3.8-17.5c-2.5-4.9-6-8.6-10.4-11.2-4.2-2.5-9.1-3.8-14.7-3.8s-10.3,1.3-14.7,3.8c-4.2,2.5-7.7,6.3-10.4,11.2-2.5,4.7-3.8,10.6-3.8,17.5s1.3,12.9,3.8,18c2.7,4.9,6.2,8.6,10.4,11.2,4.4,2.5,9.3,3.8,14.7,3.8Z"/>
  <path class="st0" d="M680.4,271.6c-15,0-28.4-3-40-9.1-11.7-6.1-20.9-14.4-27.6-25.1-6.6-10.8-9.9-23.1-9.9-37s3.3-26.1,9.9-36.7c6.8-10.6,16-18.9,27.6-24.8,11.7-6.1,25-9.1,40-9.1s28.4,3,40,9.1c11.8,5.9,21,14.2,27.6,24.8,6.6,10.6,9.9,22.9,9.9,36.7s-3.3,26.2-9.9,37c-6.6,10.6-15.8,19-27.6,25.1-11.7,6.1-25,9.1-40,9.1ZM680.4,233.3c5.6,0,10.5-1.3,14.7-3.8,4.4-2.5,7.9-6.3,10.4-11.2,2.5-5.1,3.8-11.1,3.8-18s-1.3-12.8-3.8-17.5c-2.5-4.9-6-8.6-10.4-11.2-4.2-2.5-9.1-3.8-14.7-3.8s-10.3,1.3-14.7,3.8c-4.2,2.5-7.7,6.3-10.4,11.2-2.5,4.7-3.8,10.6-3.8,17.5s1.3,12.9,3.8,18c2.7,4.9,6.2,8.6,10.4,11.2,4.4,2.5,9.3,3.8,14.7,3.8Z"/>
  <path class="st0" d="M504.5,269.3v-137.6h-54.5v-39.8h158.9v39.8h-54.2v137.6h-50.2Z"/>
  <path class="st1" d="M174.4,350h1.1c8.3,0,16.5-.6,24.4-1.8v-148.2h148.2c1.1-8,1.7-16.2,1.8-24.5v-1.1c0-8.3-.6-16.5-1.8-24.4H1.8c-1.2,8.2-1.8,16.5-1.8,25s.6,16.8,1.8,25h148.2v148.2c8,1.1,16.2,1.7,24.4,1.8Z"/>
  <path class="st1" d="M70.2,315.2l58.6-58.6c-14.7-8.4-27-20.6-35.4-35.4l-58.6,58.6c5,6.6,10.4,12.9,16.2,18.7.1.1.3.3.4.4,5.9,5.8,12.1,11.3,18.7,16.2Z"/>
  <path class="st1" d="M34.8,70.2l58.6,58.6c8.4-14.7,20.6-27,35.4-35.4l-58.6-58.6c-13.4,10-25.3,22-35.4,35.4Z"/>
  <path class="st1" d="M150,1.8v82.8c8-2.2,16.3-3.4,25-3.4s17,1.2,25,3.4V1.8c-8.2-1.2-16.5-1.8-25-1.8s-16.8.6-25,1.8Z"/>
  <path class="st1" d="M279.8,34.8l-58.6,58.6c14.7,8.4,27,20.6,35.4,35.4l58.6-58.6c-4.9-6.5-10.2-12.7-16-18.5l-.9-.9c-5.8-5.7-11.9-11.1-18.5-16Z"/>
  <path class="st1" d="M298.2,299.3c-5.8,5.7-11.9,11-18.4,15.9l-58.6-58.6c14.7-8.4,27-20.6,35.4-35.4l58.6,58.6c-4.9,6.5-10.2,12.6-15.9,18.4l-1.1,1.1Z"/>
</svg>